# xmcd
#
# Track frame offsets:
# 150
# 19347
# 34858
# 49547
# 62293
# 79988
# 96644
# 112171
# 129304
# 145397
# 168061
# 182092
# 197874
# 215274
#
# Disc length: 3059 seconds
#
#
# Revision: 0
# Processed by: cddbd v1.5.2PL0 Copyright (c) Steve Scherf et al.
# Submitted via: FreeRIP 2.945 
#
DISCID=c60bf10e
DTITLE=Ronny and Rangel - Nos Bailes da Vida
DYEAR=2006
DGENRE=Country
TTITLE0=Nos Bailes da Vida
TTITLE1=Mistura Brasileira - Grita Ai
TTITLE2=No Clarão da Lua
TTITLE3=Brincando com Fogo
TTITLE4=Bote Fé - Part. Dominguinhos
TTITLE5=Só Quem Ama
TTITLE6=Ponto Fraco
TTITLE7=Meu Jeito de Amar
TTITLE8=A Dama e o Vagabundo
TTITLE9=Medley de Boleros
TTITLE10=Inquilina de Violeiro
TTITLE11=Vontade Dividida - Part. Cezar and Paulinho
TTITLE12=Baladeira
TTITLE13=Eh Saudade
EXTD=CD Gravado ao Vivo no Vila Country - São Paulo - SP - Brasil\nem 02/08/2006.\nGravadora JHA Music Ltda. (11) 3814-0021\ne-mail: olavo.fasutino@terra.com.br\n
EXTT0=
EXTT1=
EXTT2=
EXTT3=
EXTT4=
EXTT5=
EXTT6=
EXTT7=
EXTT8=
EXTT9=
EXTT10=
EXTT11=
EXTT12=
EXTT13=
PLAYORDER=
